<svg version="1.2" xmlns="http://www.w3.org/2000/svg" viewBox="0 0 20 20" width="20" height="20"><style></style><path fill-rule="evenodd" d="m15 7.5c0 4.1-3.4 7.5-7.5 7.5q-1.1 0-2.2-0.3-0.3-1.1-0.3-2.2c0-4.1 3.4-7.5 7.5-7.5q1.1 0 2.2 0.3 0.3 1.1 0.3 2.2z"/><path fill-rule="evenodd" d="m20 12.5c0 4.1-3.4 7.5-7.5 7.5-3.4 0-6.2-2.2-7.2-5.3q-0.1-0.1-0.3-0.1c-2.9-1.1-5-3.8-5-7.1 0-4.1 3.4-7.5 7.5-7.5 1.9 0 3.7 0.7 5 1.9 1 0.9 1.8 2.1 2.2 3.4 3.1 1 5.3 3.8 5.3 7.2zm-7.5 6.5c3.6 0 6.5-2.9 6.5-6.5 0-2.7-1.7-5.1-4.1-6q0.1 0.5 0.1 1c0 4.1-3.4 7.5-7.5 7.5q-0.5 0-1-0.1c0.9 2.4 3.3 4.1 6 4.1zm-5-5c3.6 0 6.5-2.9 6.5-6.5 0-3.6-2.9-6.5-6.5-6.5-3.6 0-6.5 2.9-6.5 6.5 0 3.6 2.9 6.5 6.5 6.5z"/></svg>