<svg version="1.2" xmlns="http://www.w3.org/2000/svg" viewBox="0 0 20 20" width="20" height="20"><style></style><path fill-rule="evenodd" d="m0 7.5c0-4.1 3.4-7.5 7.5-7.5 3.4 0 6.2 2.2 7.2 5.3 3.1 1 5.3 3.8 5.3 7.2 0 4.1-3.4 7.5-7.5 7.5-3.3 0-6-2.1-7.1-5q0-0.2-0.1-0.3c-3.1-1-5.3-3.8-5.3-7.2zm7.5-6.5c-3.6 0-6.5 2.9-6.5 6.5 0 3.6 2.9 6.5 6.5 6.5 3.6 0 6.5-2.9 6.5-6.5 0-3.6-2.9-6.5-6.5-6.5z"/><path fill-rule="evenodd" d="m5 12.5c0-4.1 3.4-7.5 7.5-7.5q1 0 1.9 0.2v1.1q-0.9-0.3-1.9-0.3c-3.6 0-6.5 2.9-6.5 6.5q0 1 0.3 1.9h-1.1q-0.2-0.9-0.2-1.9z"/></svg>