<svg version="1.2" xmlns="http://www.w3.org/2000/svg" viewBox="0 0 512 512" width="512" height="512"><style></style><path  d="m136.5 204.8h71.7c-2.2 11-3.4 22.4-3.4 34.1 0 26.2 5.9 50.9 16.3 73.1-23.2 18.4-52.6 29.3-84.6 29.3v170.7c-75.4 0-136.5-61.1-136.5-136.5v-239c0-75.4 61.1-136.5 136.5-136.5h227.6c0 26.1-7.3 50.4-20 71.1-42.7 7.9-79.7 31.7-104.9 64.9q-5.8 0.5-11.6 0.5h-91.1zm239 307.2h-136.6l45.5-136.5h91.1c-75.5 0-136.6-61-136.6-136.5 0-75.5 61.1-136.6 136.6-136.6 26.9 0 51.9 7.8 73.1 21.2l63.4-21.2v273.1c0 75.4-61.1 136.5-136.5 136.5zm34.1-273c0-18.9-15.3-34.2-34.1-34.2-18.9 0-34.2 15.3-34.2 34.2 0 18.8 15.3 34.1 34.2 34.1 18.8 0 34.1-15.3 34.1-34.1z"/></svg>